<svg xmlns="http://www.w3.org/2000/svg" xmlns:xlink="http://www.w3.org/1999/xlink" contentStyleType="text/css" data-diagram-type="CLASS" height="589px" preserveAspectRatio="none" style="width:689px;height:589px;background:#FFFFFF;" version="1.1" viewBox="0 0 689 589" width="689px" zoomAndPan="magnify"><defs/><g><!--class Stw--><g class="entity" data-entity="Stw" data-source-line="3" data-uid="ent0002" id="entity_Stw"><rect fill="#F1F1F1" height="67.0679" rx="2.5" ry="2.5" style="stroke:#181818;stroke-width:0.5;" width="72.0178" x="305" y="7"/><ellipse cx="327.3232" cy="23" fill="#ADD1B2" rx="11" ry="11" style="stroke:#181818;stroke-width:1;"/><path d="M330.292,28.6406 Q329.7139,28.9375 329.0732,29.0781 Q328.4326,29.2344 327.7295,29.2344 Q325.2295,29.2344 323.9014,27.5938 Q322.5889,25.9375 322.5889,22.8125 Q322.5889,19.6875 323.9014,18.0313 Q325.2295,16.375 327.7295,16.375 Q328.4326,16.375 329.0732,16.5313 Q329.7295,16.6875 330.292,16.9844 L330.292,19.7031 Q329.667,19.125 329.0732,18.8594 Q328.4795,18.5781 327.8545,18.5781 Q326.5107,18.5781 325.8232,19.6563 Q325.1357,20.7188 325.1357,22.8125 Q325.1357,24.9063 325.8232,25.9844 Q326.5107,27.0469 327.8545,27.0469 Q328.4795,27.0469 329.0732,26.7813 Q329.667,26.5 330.292,25.9219 L330.292,28.6406 Z " fill="#000000"/><text fill="#000000" font-family="sans-serif" font-size="14" lengthAdjust="spacing" textLength="23.7439" x="342.9506" y="28.432">Stw</text><line style="stroke:#181818;stroke-width:0.5;" x1="306" x2="376.0178" y1="39" y2="39"/><text fill="#000000" font-family="sans-serif" font-size="14" lengthAdjust="spacing" textLength="60.0178" x="311" y="57.9659">Stellwerk</text><line style="stroke:#181818;stroke-width:0.5;" x1="306" x2="376.0178" y1="66.0679" y2="66.0679"/></g><!--class Bf--><g class="entity" data-entity="Bf" data-source-line="7" data-uid="ent0003" id="entity_Bf"><rect fill="#F1F1F1" height="67.0679" rx="2.5" ry="2.5" style="stroke:#181818;stroke-width:0.5;" width="68.1958" x="245" y="134"/><ellipse cx="270.0259" cy="150" fill="#ADD1B2" rx="11" ry="11" style="stroke:#181818;stroke-width:1;"/><path d="M272.9947,155.6406 Q272.4165,155.9375 271.7759,156.0781 Q271.1353,156.2344 270.4322,156.2344 Q267.9322,156.2344 266.604,154.5938 Q265.2915,152.9375 265.2915,149.8125 Q265.2915,146.6875 266.604,145.0313 Q267.9322,143.375 270.4322,143.375 Q271.1353,143.375 271.7759,143.5313 Q272.4322,143.6875 272.9947,143.9844 L272.9947,146.7031 Q272.3697,146.125 271.7759,145.8594 Q271.1822,145.5781 270.5572,145.5781 Q269.2134,145.5781 268.5259,146.6563 Q267.8384,147.7188 267.8384,149.8125 Q267.8384,151.9063 268.5259,152.9844 Q269.2134,154.0469 270.5572,154.0469 Q271.1822,154.0469 271.7759,153.7813 Q272.3697,153.5 272.9947,152.9219 L272.9947,155.6406 Z " fill="#000000"/><text fill="#000000" font-family="sans-serif" font-size="14" lengthAdjust="spacing" textLength="13.9159" x="286.2539" y="155.432">Bf</text><line style="stroke:#181818;stroke-width:0.5;" x1="246" x2="312.1958" y1="166" y2="166"/><text fill="#000000" font-family="sans-serif" font-size="14" lengthAdjust="spacing" textLength="56.1958" x="251" y="184.9659">Bahnhof</text><line style="stroke:#181818;stroke-width:0.5;" x1="246" x2="312.1958" y1="193.0679" y2="193.0679"/></g><!--class Bft--><g class="entity" data-entity="Bft" data-source-line="11" data-uid="ent0004" id="entity_Bft"><rect fill="#F1F1F1" height="67.0679" rx="2.5" ry="2.5" style="stroke:#181818;stroke-width:0.5;" width="88.3697" x="228" y="261"/><ellipse cx="259.8299" cy="277" fill="#ADD1B2" rx="11" ry="11" style="stroke:#181818;stroke-width:1;"/><path d="M262.7986,282.6406 Q262.2205,282.9375 261.5799,283.0781 Q260.9393,283.2344 260.2361,283.2344 Q257.7361,283.2344 256.408,281.5938 Q255.0955,279.9375 255.0955,276.8125 Q255.0955,273.6875 256.408,272.0313 Q257.7361,270.375 260.2361,270.375 Q260.9393,270.375 261.5799,270.5313 Q262.2361,270.6875 262.7986,270.9844 L262.7986,273.7031 Q262.1736,273.125 261.5799,272.8594 Q260.9861,272.5781 260.3611,272.5781 Q259.0174,272.5781 258.3299,273.6563 Q257.6424,274.7188 257.6424,276.8125 Q257.6424,278.9063 258.3299,279.9844 Q259.0174,281.0469 260.3611,281.0469 Q260.9861,281.0469 261.5799,280.7813 Q262.1736,280.5 262.7986,279.9219 L262.7986,282.6406 Z " fill="#000000"/><text fill="#000000" font-family="sans-serif" font-size="14" lengthAdjust="spacing" textLength="18.9699" x="277.5699" y="282.432">Bft</text><line style="stroke:#181818;stroke-width:0.5;" x1="229" x2="315.3697" y1="293" y2="293"/><text fill="#000000" font-family="sans-serif" font-size="14" lengthAdjust="spacing" textLength="76.3697" x="234" y="311.9659">Bahnhofteil</text><line style="stroke:#181818;stroke-width:0.5;" x1="229" x2="315.3697" y1="320.0679" y2="320.0679"/></g><!--class Bs--><g class="entity" data-entity="Bs" data-source-line="15" data-uid="ent0005" id="entity_Bs"><rect fill="#F1F1F1" height="67.0679" rx="2.5" ry="2.5" style="stroke:#181818;stroke-width:0.5;" width="78.1357" x="229" y="388"/><ellipse cx="257.6484" cy="404" fill="#ADD1B2" rx="11" ry="11" style="stroke:#181818;stroke-width:1;"/><path d="M260.6172,409.6406 Q260.039,409.9375 259.3984,410.0781 Q258.7578,410.2344 258.0547,410.2344 Q255.5547,410.2344 254.2265,408.5938 Q252.914,406.9375 252.914,403.8125 Q252.914,400.6875 254.2265,399.0313 Q255.5547,397.375 258.0547,397.375 Q258.7578,397.375 259.3984,397.5313 Q260.0547,397.6875 260.6172,397.9844 L260.6172,400.7031 Q259.9922,400.125 259.3984,399.8594 Q258.8047,399.5781 258.1797,399.5781 Q256.8359,399.5781 256.1484,400.6563 Q255.4609,401.7188 255.4609,403.8125 Q255.4609,405.9063 256.1484,406.9844 Q256.8359,408.0469 258.1797,408.0469 Q258.8047,408.0469 259.3984,407.7813 Q259.9922,407.5 260.6172,406.9219 L260.6172,409.6406 Z " fill="#000000"/><text fill="#000000" font-family="sans-serif" font-size="14" lengthAdjust="spacing" textLength="15.8059" x="274.6814" y="409.432">Bs</text><line style="stroke:#181818;stroke-width:0.5;" x1="230" x2="306.1357" y1="420" y2="420"/><text fill="#000000" font-family="sans-serif" font-size="14" lengthAdjust="spacing" textLength="66.1357" x="235" y="438.9659">Bahnsteig</text><line style="stroke:#181818;stroke-width:0.5;" x1="230" x2="306.1357" y1="447.0679" y2="447.0679"/></g><!--class Gl--><g class="entity" data-entity="Gl" data-source-line="19" data-uid="ent0006" id="entity_Gl"><rect fill="#F1F1F1" height="67.0679" rx="2.5" ry="2.5" style="stroke:#181818;stroke-width:0.5;" width="129.7395" x="201" y="515"/><ellipse cx="254.7178" cy="531" fill="#ADD1B2" rx="11" ry="11" style="stroke:#181818;stroke-width:1;"/><path d="M257.6865,536.6406 Q257.1084,536.9375 256.4678,537.0781 Q255.8272,537.2344 255.124,537.2344 Q252.624,537.2344 251.2959,535.5938 Q249.9834,533.9375 249.9834,530.8125 Q249.9834,527.6875 251.2959,526.0313 Q252.624,524.375 255.124,524.375 Q255.8272,524.375 256.4678,524.5313 Q257.124,524.6875 257.6865,524.9844 L257.6865,527.7031 Q257.0615,527.125 256.4678,526.8594 Q255.874,526.5781 255.249,526.5781 Q253.9053,526.5781 253.2178,527.6563 Q252.5303,528.7188 252.5303,530.8125 Q252.5303,532.9063 253.2178,533.9844 Q253.9053,535.0469 255.249,535.0469 Q255.874,535.0469 256.4678,534.7813 Q257.0615,534.5 257.6865,533.9219 L257.6865,536.6406 Z " fill="#000000"/><text fill="#000000" font-family="sans-serif" font-size="14" lengthAdjust="spacing" textLength="13.8039" x="275.2178" y="536.432">Gl</text><line style="stroke:#181818;stroke-width:0.5;" x1="202" x2="329.7395" y1="547" y2="547"/><text fill="#000000" font-family="sans-serif" font-size="14" lengthAdjust="spacing" textLength="117.7395" x="207" y="565.9659">Gleis / Haltepunkt</text><line style="stroke:#181818;stroke-width:0.5;" x1="202" x2="329.7395" y1="574.0679" y2="574.0679"/></g><!--class Agl--><g class="entity" data-entity="Agl" data-source-line="23" data-uid="ent0007" id="entity_Agl"><rect fill="#F1F1F1" height="67.0679" rx="2.5" ry="2.5" style="stroke:#181818;stroke-width:0.5;" width="107.7876" x="366" y="515"/><ellipse cx="405.5789" cy="531" fill="#ADD1B2" rx="11" ry="11" style="stroke:#181818;stroke-width:1;"/><path d="M408.5476,536.6406 Q407.9695,536.9375 407.3289,537.0781 Q406.6882,537.2344 405.9851,537.2344 Q403.4851,537.2344 402.157,535.5938 Q400.8445,533.9375 400.8445,530.8125 Q400.8445,527.6875 402.157,526.0313 Q403.4851,524.375 405.9851,524.375 Q406.6882,524.375 407.3289,524.5313 Q407.9851,524.6875 408.5476,524.9844 L408.5476,527.7031 Q407.9226,527.125 407.3289,526.8594 Q406.7351,526.5781 406.1101,526.5781 Q404.7664,526.5781 404.0789,527.6563 Q403.3914,528.7188 403.3914,530.8125 Q403.3914,532.9063 404.0789,533.9844 Q404.7664,535.0469 406.1101,535.0469 Q406.7351,535.0469 407.3289,534.7813 Q407.9226,534.5 408.5476,533.9219 L408.5476,536.6406 Z " fill="#000000"/><text fill="#000000" font-family="sans-serif" font-size="14" lengthAdjust="spacing" textLength="21.1679" x="425.0408" y="536.432">Agl</text><line style="stroke:#181818;stroke-width:0.5;" x1="367" x2="472.7876" y1="547" y2="547"/><text fill="#000000" font-family="sans-serif" font-size="14" lengthAdjust="spacing" textLength="95.7876" x="372" y="565.9659">Anschlussgleis</text><line style="stroke:#181818;stroke-width:0.5;" x1="367" x2="472.7876" y1="574.0679" y2="574.0679"/></g><!--class Anst--><g class="entity" data-entity="Anst" data-source-line="27" data-uid="ent0008" id="entity_Anst"><rect fill="#F1F1F1" height="67.0679" rx="2.5" ry="2.5" style="stroke:#181818;stroke-width:0.5;" width="112.1276" x="348" y="134"/><ellipse cx="385.8464" cy="150" fill="#ADD1B2" rx="11" ry="11" style="stroke:#181818;stroke-width:1;"/><path d="M388.8151,155.6406 Q388.237,155.9375 387.5964,156.0781 Q386.9557,156.2344 386.2526,156.2344 Q383.7526,156.2344 382.4245,154.5938 Q381.112,152.9375 381.112,149.8125 Q381.112,146.6875 382.4245,145.0313 Q383.7526,143.375 386.2526,143.375 Q386.9557,143.375 387.5964,143.5313 Q388.2526,143.6875 388.8151,143.9844 L388.8151,146.7031 Q388.1901,146.125 387.5964,145.8594 Q387.0026,145.5781 386.3776,145.5781 Q385.0339,145.5781 384.3464,146.6563 Q383.6589,147.7188 383.6589,149.8125 Q383.6589,151.9063 384.3464,152.9844 Q385.0339,154.0469 386.3776,154.0469 Q387.0026,154.0469 387.5964,153.7813 Q388.1901,153.5 388.8151,152.9219 L388.8151,155.6406 Z " fill="#000000"/><text fill="#000000" font-family="sans-serif" font-size="14" lengthAdjust="spacing" textLength="29.3579" x="404.9233" y="155.432">Anst</text><line style="stroke:#181818;stroke-width:0.5;" x1="349" x2="459.1276" y1="166" y2="166"/><text fill="#000000" font-family="sans-serif" font-size="14" lengthAdjust="spacing" textLength="100.1276" x="354" y="184.9659">Anschlussstelle</text><line style="stroke:#181818;stroke-width:0.5;" x1="349" x2="459.1276" y1="193.0679" y2="193.0679"/></g><g class="entity" data-entity="GMN9" data-source-line="31" data-uid="ent0010" id="entity_GMN9"><path d="M412.5,26.5 L412.5,36.5 L377.39,40.5 L412.5,44.5 L412.5,54.206 A0,0 0 0 0 412.5,54.206 L499.3191,54.206 A0,0 0 0 0 499.3191,54.206 L499.3191,36.5 L489.3191,26.5 L412.5,26.5 A0,0 0 0 0 412.5,26.5" fill="#FEFFDD" style="stroke:#181818;stroke-width:0.5;"/><path d="M489.3191,26.5 L489.3191,36.5 L499.3191,36.5 L489.3191,26.5" fill="#FEFFDD" style="stroke:#181818;stroke-width:0.5;"/><text fill="#000000" font-family="sans-serif" font-size="13" lengthAdjust="spacing" textLength="65.8191" x="418.5" y="45.397">wie im Sim</text></g><g class="entity" data-entity="GMN12" data-source-line="32" data-uid="ent0013" id="entity_GMN12"><path d="M22,145 L22,190.412 A0,0 0 0 0 22,190.412 L209.5042,190.412 A0,0 0 0 0 209.5042,190.412 L209.5042,171.5 L244.89,167.5 L209.5042,163.5 L209.5042,155 L199.5042,145 L22,145 A0,0 0 0 0 22,145" fill="#FEFFDD" style="stroke:#181818;stroke-width:0.5;"/><path d="M199.5042,145 L199.5042,155 L209.5042,155 L199.5042,145" fill="#FEFFDD" style="stroke:#181818;stroke-width:0.5;"/><text fill="#000000" font-family="sans-serif" font-size="13" lengthAdjust="spacing" textLength="89.5961" x="28" y="163.897">Name w&#228;hlbar</text><text fill="#000000" font-family="sans-serif" font-size="13" lengthAdjust="spacing" textLength="166.5042" x="28" y="181.603">keine Entsprechung im Sim</text></g><g class="entity" data-entity="GMN15" data-source-line="33" data-uid="ent0016" id="entity_GMN15"><path d="M34.5,272 L34.5,317.412 A0,0 0 0 0 34.5,317.412 L193.4821,317.412 A0,0 0 0 0 193.4821,317.412 L193.4821,298.5 L227.91,294.5 L193.4821,290.5 L193.4821,282 L183.4821,272 L34.5,272 A0,0 0 0 0 34.5,272" fill="#FEFFDD" style="stroke:#181818;stroke-width:0.5;"/><path d="M183.4821,272 L183.4821,282 L193.4821,282 L183.4821,272" fill="#FEFFDD" style="stroke:#181818;stroke-width:0.5;"/><text fill="#000000" font-family="sans-serif" font-size="13" lengthAdjust="spacing" textLength="89.5961" x="40.5" y="290.897">Name w&#228;hlbar</text><text fill="#000000" font-family="sans-serif" font-size="13" lengthAdjust="spacing" textLength="137.9821" x="40.5" y="308.603">Gruppierung nach Sim</text></g><g class="entity" data-entity="GMN18" data-source-line="34" data-uid="ent0019" id="entity_GMN18"><path d="M6,399 L6,444.412 A0,0 0 0 0 6,444.412 L193.5042,444.412 A0,0 0 0 0 193.5042,444.412 L193.5042,425.5 L228.78,421.5 L193.5042,417.5 L193.5042,409 L183.5042,399 L6,399 A0,0 0 0 0 6,399" fill="#FEFFDD" style="stroke:#181818;stroke-width:0.5;"/><path d="M183.5042,399 L183.5042,409 L193.5042,409 L183.5042,399" fill="#FEFFDD" style="stroke:#181818;stroke-width:0.5;"/><text fill="#000000" font-family="sans-serif" font-size="13" lengthAdjust="spacing" textLength="89.5961" x="12" y="417.897">Name w&#228;hlbar</text><text fill="#000000" font-family="sans-serif" font-size="13" lengthAdjust="spacing" textLength="166.5042" x="12" y="435.603">keine Entsprechung im Sim</text></g><g class="entity" data-entity="GMN21" data-source-line="35" data-uid="ent0022" id="entity_GMN21"><path d="M78.5,534.5 L78.5,562.206 A0,0 0 0 0 78.5,562.206 L165.3191,562.206 A0,0 0 0 0 165.3191,562.206 L165.3191,552.5 L200.89,548.5 L165.3191,544.5 L165.3191,544.5 L155.3191,534.5 L78.5,534.5 A0,0 0 0 0 78.5,534.5" fill="#FEFFDD" style="stroke:#181818;stroke-width:0.5;"/><path d="M155.3191,534.5 L155.3191,544.5 L165.3191,544.5 L155.3191,534.5" fill="#FEFFDD" style="stroke:#181818;stroke-width:0.5;"/><text fill="#000000" font-family="sans-serif" font-size="13" lengthAdjust="spacing" textLength="65.8191" x="84.5" y="553.397">wie im Sim</text></g><g class="entity" data-entity="GMN24" data-source-line="37" data-uid="ent0025" id="entity_GMN24"><path d="M495,145 L495,163.5 L460.01,167.5 L495,171.5 L495,190.412 A0,0 0 0 0 495,190.412 L682.5042,190.412 A0,0 0 0 0 682.5042,190.412 L682.5042,155 L672.5042,145 L495,145 A0,0 0 0 0 495,145" fill="#FEFFDD" style="stroke:#181818;stroke-width:0.5;"/><path d="M672.5042,145 L672.5042,155 L682.5042,155 L672.5042,145" fill="#FEFFDD" style="stroke:#181818;stroke-width:0.5;"/><text fill="#000000" font-family="sans-serif" font-size="13" lengthAdjust="spacing" textLength="89.5961" x="501" y="163.897">Name w&#228;hlbar</text><text fill="#000000" font-family="sans-serif" font-size="13" lengthAdjust="spacing" textLength="166.5042" x="501" y="181.603">keine Entsprechung im Sim</text></g><g class="entity" data-entity="GMN27" data-source-line="38" data-uid="ent0028" id="entity_GMN27"><path d="M509.5,534.5 L509.5,544.5 L474.03,548.5 L509.5,552.5 L509.5,562.206 A0,0 0 0 0 509.5,562.206 L596.3191,562.206 A0,0 0 0 0 596.3191,562.206 L596.3191,544.5 L586.3191,534.5 L509.5,534.5 A0,0 0 0 0 509.5,534.5" fill="#FEFFDD" style="stroke:#181818;stroke-width:0.5;"/><path d="M586.3191,534.5 L586.3191,544.5 L596.3191,544.5 L586.3191,534.5" fill="#FEFFDD" style="stroke:#181818;stroke-width:0.5;"/><text fill="#000000" font-family="sans-serif" font-size="13" lengthAdjust="spacing" textLength="65.8191" x="515.5" y="553.397">wie im Sim</text></g><!--reverse link Stw to Bf--><g class="link" data-entity-1="Stw" data-entity-2="Bf" data-source-line="40" data-uid="lnk30" id="link_Stw_Bf"><path codeLine="40" d="M319.5386,84.7706 C310.4286,103.1406 304.4,115.29 295.26,133.71" fill="none" id="Stw-backto-Bf" style="stroke:#181818;stroke-width:1;"/><polygon fill="#181818" points="324.87,74.02,318.6207,77.6182,319.5386,84.7706,325.7878,81.1725,324.87,74.02" style="stroke:#181818;stroke-width:1;"/><text fill="#000000" font-family="sans-serif" font-size="13" lengthAdjust="spacing" textLength="7.436" x="314.1679" y="95.9879">1</text><text fill="#000000" font-family="sans-serif" font-size="13" lengthAdjust="spacing" textLength="7.163" x="290.8884" y="121.9505">*</text></g><!--reverse link Bf to Bft--><g class="link" data-entity-1="Bf" data-entity-2="Bft" data-source-line="41" data-uid="lnk31" id="link_Bf_Bft"><path codeLine="41" d="M276.5082,213.0012 C275.4782,231.3712 274.87,242.29 273.84,260.71" fill="none" id="Bf-backto-Bft" style="stroke:#181818;stroke-width:1;"/><polygon fill="#181818" points="277.18,201.02,272.8504,206.7867,276.5082,213.0012,280.8378,207.2345,277.18,201.02" style="stroke:#181818;stroke-width:1;"/><text fill="#000000" font-family="sans-serif" font-size="13" lengthAdjust="spacing" textLength="7.436" x="269.1888" y="222.9879">1</text><text fill="#000000" font-family="sans-serif" font-size="13" lengthAdjust="spacing" textLength="7.163" x="266.4763" y="248.9505">*</text></g><!--reverse link Bft to Bs--><g class="link" data-entity-1="Bft" data-entity-2="Bs" data-source-line="42" data-uid="lnk32" id="link_Bft_Bs"><path codeLine="42" d="M270.5748,340.0138 C269.9848,358.3838 269.64,369.29 269.05,387.71" fill="none" id="Bft-backto-Bs" style="stroke:#181818;stroke-width:1;"/><polygon fill="#181818" points="270.96,328.02,266.7695,333.8885,270.5748,340.0138,274.7653,334.1453,270.96,328.02" style="stroke:#181818;stroke-width:1;"/><text fill="#000000" font-family="sans-serif" font-size="13" lengthAdjust="spacing" textLength="7.436" x="263.1009" y="349.9879">1</text><text fill="#000000" font-family="sans-serif" font-size="13" lengthAdjust="spacing" textLength="7.163" x="261.5475" y="375.9505">*</text></g><!--reverse link Bs to Gl--><g class="link" data-entity-1="Bs" data-entity-2="Gl" data-source-line="43" data-uid="lnk33" id="link_Bs_Gl"><path codeLine="43" d="M267.2906,467.0185 C267.0006,485.3885 266.82,496.29 266.52,514.71" fill="none" id="Bs-backto-Gl" style="stroke:#181818;stroke-width:1;"/><polygon fill="#181818" points="267.48,455.02,263.3858,460.9561,267.2906,467.0185,271.3848,461.0824,267.48,455.02" style="stroke:#181818;stroke-width:1;"/><text fill="#000000" font-family="sans-serif" font-size="13" lengthAdjust="spacing" textLength="7.436" x="259.7423" y="476.9879">1</text><text fill="#000000" font-family="sans-serif" font-size="13" lengthAdjust="spacing" textLength="7.163" x="258.949" y="502.9505">*</text></g><!--reverse link Stw to Anst--><g class="link" data-entity-1="Stw" data-entity-2="Anst" data-source-line="45" data-uid="lnk34" id="link_Stw_Anst"><path codeLine="45" d="M362.7915,84.7356 C372.0515,103.1056 378.19,115.29 387.48,133.71" fill="none" id="Stw-backto-Anst" style="stroke:#181818;stroke-width:1;"/><polygon fill="#181818" points="357.39,74.02,356.5189,81.1783,362.7915,84.7356,363.6626,77.5773,357.39,74.02" style="stroke:#181818;stroke-width:1;"/><text fill="#000000" font-family="sans-serif" font-size="13" lengthAdjust="spacing" textLength="7.436" x="352.887" y="95.9879">1</text><text fill="#000000" font-family="sans-serif" font-size="13" lengthAdjust="spacing" textLength="7.163" x="376.3545" y="121.9505">*</text></g><!--reverse link Anst to Agl--><g class="link" data-entity-1="Anst" data-entity-2="Agl" data-source-line="46" data-uid="lnk35" id="link_Anst_Agl"><path codeLine="46" d="M405.8854,213.1294 C408.9054,284.7694 415.59,443.11 418.62,514.8" fill="none" id="Anst-backto-Agl" style="stroke:#181818;stroke-width:1;"/><polygon fill="#181818" points="405.38,201.14,401.6363,207.3031,405.8854,213.1294,409.6292,206.9662,405.38,201.14" style="stroke:#181818;stroke-width:1;"/><text fill="#000000" font-family="sans-serif" font-size="13" lengthAdjust="spacing" textLength="7.436" x="398.0176" y="222.8654">1</text><text fill="#000000" font-family="sans-serif" font-size="13" lengthAdjust="spacing" textLength="7.163" x="410.6522" y="503.0591">*</text></g><!--link Bf to Anst--><g class="link" data-entity-1="Bf" data-entity-2="Anst" data-source-line="48" data-uid="lnk36" id="link_Bf_Anst"><path codeLine="48" d="M313.18,167.5 C324.77,167.5 336.36,167.5 347.95,167.5" fill="none" id="Bf-Anst" style="stroke:#181818;stroke-width:1;stroke-dasharray:7,7;"/></g><!--link Gl to Agl--><g class="link" data-entity-1="Gl" data-entity-2="Agl" data-source-line="49" data-uid="lnk37" id="link_Gl_Agl"><path codeLine="49" d="M331.27,548.5 C342.82,548.5 354.38,548.5 365.93,548.5" fill="none" id="Gl-Agl" style="stroke:#181818;stroke-width:1;stroke-dasharray:7,7;"/></g><!--SRC=[dP0nRiCm34LtdOBmKY10OdJrbW15EdNnsaLnQ4aDBHiY3Gz1RjERz6ALd0InatPeDVxtFyNF9olISP7d7MalVKEhgctoTlU1bIptJfkW6wKgqinGoW171V6LWaG3XeCwNU6clh2DjjwszPJ870awcc2UK8xCtDYMBknOEwJzAGhe679urIJOzVuWD_FQNDrhpvMbdjaa-yGHvzzRE5N1vF6j80Hdh41RZsKB61o2Qw1qpHaJrYEDRGjuqmt2yFLfQQV3kp-WymWlNhWBMDdUcr-YyfZTXhxh78OKyhgoFyJutp_6AywQt3KTh_BNsRUqkP-UBfSzPx1OBY5RPB6mYkUQAwBI6MOQgrXngcpfSLRQLOqBprGJhV6FrPd7lgjH-mO0]--></g></svg>